<svg width="21" height="16" viewBox="0 0 21 16" fill="none" xmlns="http://www.w3.org/2000/svg">
<path d="M10.0909 12L11.4091 10.6818L9.68182 8.95455L8.36364 10.2727V10.9091H9.45454V12H10.0909ZM15.0909 3.81818C14.9886 3.71591 14.8182 3.72727 14.7159 3.82955L10.7386 7.80682C10.6364 7.90909 10.625 8.07955 10.7273 8.18182C10.8295 8.28409 11 8.27273 11.1023 8.17045L15.0795 4.19318C15.1818 4.09091 15.1932 3.92045 15.0909 3.81818ZM16 10.5682V12.7273C16 14.5341 14.5341 16 12.7273 16H3.27273C1.46591 16 0 14.5341 0 12.7273V3.27273C0 1.46591 1.46591 0 3.27273 0H12.7273C13.1818 0 13.6364 0.0909091 14.0568 0.284091C14.1591 0.329545 14.2386 0.431818 14.2614 0.545455C14.2841 0.670455 14.25 0.784091 14.1591 0.875L13.6023 1.43182C13.5 1.53409 13.3636 1.56818 13.2386 1.52273C13.0682 1.47727 12.8977 1.45455 12.7273 1.45455H3.27273C2.27273 1.45455 1.45455 2.27273 1.45455 3.27273V12.7273C1.45455 13.7273 2.27273 14.5455 3.27273 14.5455H12.7273C13.7273 14.5455 14.5455 13.7273 14.5455 12.7273V11.2955C14.5455 11.2045 14.5795 11.1136 14.6477 11.0455L15.375 10.3182C15.4886 10.2045 15.6364 10.1818 15.7727 10.2386C15.9091 10.2955 16 10.4205 16 10.5682ZM14.9091 2.18182L18.1818 5.45455L10.5455 13.0909H7.27273V9.81818L14.9091 2.18182ZM19.9545 3.68182L18.9091 4.72727L15.6364 1.45455L16.6818 0.409091C17.1023 -0.0113636 17.8068 -0.0113636 18.2273 0.409091L19.9545 2.13636C20.375 2.55682 20.375 3.26136 19.9545 3.68182Z" fill="#CDCDCD"/>
</svg>
